<svg width="32" height="32" viewBox="0 0 32 32" fill="none" xmlns="http://www.w3.org/2000/svg">
<path d="M23.1688 0H8.8306C3.96141 0 0 3.9616 0 8.83079V23.169C0 28.0384 3.96141 31.9998 8.8306 31.9998H23.1688C28.0384 31.9998 31.9998 28.0382 31.9998 23.169V8.83079C32 3.9616 28.0384 0 23.1688 0ZM29.1608 23.169C29.1608 26.4729 26.4729 29.1606 23.169 29.1606H8.8306C5.52693 29.1608 2.83918 26.4729 2.83918 23.169V8.83079C2.83918 5.52712 5.52693 2.83918 8.8306 2.83918H23.1688C26.4727 2.83918 29.1606 5.52712 29.1606 8.83079V23.169H29.1608Z" fill="white"/>
<path d="M16.2455 8C11.6989 8 8 11.6989 8 16.2455C8 20.792 11.6989 24.4907 16.2455 24.4907C20.7922 24.4907 24.4911 20.792 24.4911 16.2455C24.4911 11.6989 20.7922 8 16.2455 8ZM16.2455 21.6513C13.2646 21.6513 10.8392 19.2263 10.8392 16.2454C10.8392 13.2642 13.2644 10.839 16.2455 10.839C19.2267 10.839 21.6519 13.2642 21.6519 16.2454C21.6519 19.2263 19.2265 21.6513 16.2455 21.6513Z" fill="white"/>
<path d="M24.5913 5.34735C24.0443 5.34735 23.507 5.56881 23.1206 5.95683C22.7324 6.34296 22.5093 6.88051 22.5093 7.42942C22.5093 7.97662 22.7326 8.51398 23.1206 8.902C23.5068 9.28813 24.0443 9.51148 24.5913 9.51148C25.1402 9.51148 25.6759 9.28813 26.0639 8.902C26.4519 8.51398 26.6734 7.97643 26.6734 7.42942C26.6734 6.88051 26.4519 6.34296 26.0639 5.95683C25.6778 5.56881 25.1402 5.34735 24.5913 5.34735Z" fill="white"/>
</svg>
